<svg width="70" height="70" viewBox="0 0 70 70" fill="none" xmlns="http://www.w3.org/2000/svg">
<path d="M17.5 0H4.37501C1.95876 0 0 1.95876 0 4.37501V17.5C0 19.9163 1.95876 21.875 4.37501 21.875H17.5C19.9163 21.875 21.875 19.9163 21.875 17.5V4.37501C21.875 1.95876 19.9163 0 17.5 0Z" fill="#1E293B"/>
<path d="M41.563 0H28.438C26.0217 0 24.063 1.95876 24.063 4.37501V17.5C24.063 19.9163 26.0217 21.875 28.438 21.875H41.563C43.9793 21.875 45.938 19.9163 45.938 17.5V4.37501C45.938 1.95876 43.9793 0 41.563 0Z" fill="#3B82F6"/>
<path d="M65.625 0H52.5C50.0838 0 48.125 1.95876 48.125 4.37501V17.5C48.125 19.9163 50.0838 21.875 52.5 21.875H65.625C68.0413 21.875 70 19.9163 70 17.5V4.37501C70 1.95876 68.0413 0 65.625 0Z" fill="#1E293B"/>
<path d="M17.5 24.0625H4.37501C1.95876 24.0625 0 26.0213 0 28.4375V41.5625C0 43.9788 1.95876 45.9375 4.37501 45.9375H17.5C19.9163 45.9375 21.875 43.9788 21.875 41.5625V28.4375C21.875 26.0213 19.9163 24.0625 17.5 24.0625Z" fill="#1E293B"/>
<path d="M41.563 24.0625H28.438C26.0217 24.0625 24.063 26.0213 24.063 28.4375V41.5625C24.063 43.9788 26.0217 45.9375 28.438 45.9375H41.563C43.9793 45.9375 45.938 43.9788 45.938 41.5625V28.4375C45.938 26.0213 43.9793 24.0625 41.563 24.0625Z" fill="#F4A300"/>
<path d="M65.625 24.0625H52.5C50.0838 24.0625 48.125 26.0213 48.125 28.4375V41.5625C48.125 43.9788 50.0838 45.9375 52.5 45.9375H65.625C68.0413 45.9375 70 43.9788 70 41.5625V28.4375C70 26.0213 68.0413 24.0625 65.625 24.0625Z" fill="#1E293B"/>
<path d="M17.5 48.125H4.37501C1.95876 48.125 0 50.0838 0 52.5V65.625C0 68.0413 1.95876 70 4.37501 70H17.5C19.9163 70 21.875 68.0413 21.875 65.625V52.5C21.875 50.0838 19.9163 48.125 17.5 48.125Z" fill="#1E293B"/>
<path d="M41.563 48.125H28.438C26.0217 48.125 24.063 50.0838 24.063 52.5V65.625C24.063 68.0413 26.0217 70 28.438 70H41.563C43.9793 70 45.938 68.0413 45.938 65.625V52.5C45.938 50.0838 43.9793 48.125 41.563 48.125Z" fill="#1E293B"/>
<path d="M65.625 48.125H52.5C50.0838 48.125 48.125 50.0838 48.125 52.5V65.625C48.125 68.0413 50.0838 70 52.5 70H65.625C68.0413 70 70 68.0413 70 65.625V52.5C70 50.0838 68.0413 48.125 65.625 48.125Z" fill="#1E293B"/>
<path d="M14.934 5.96C15.094 5.96 15.2327 5.976 15.35 6.008C15.478 6.04 15.5793 6.12 15.654 6.248C15.7287 6.36533 15.766 6.55733 15.766 6.824C15.766 7.09067 15.7287 7.288 15.654 7.416C15.5793 7.53333 15.478 7.608 15.35 7.64C15.222 7.66133 15.078 7.672 14.918 7.672H11.974V16.2C11.974 16.3813 11.9527 16.5467 11.91 16.696C11.878 16.8347 11.7927 16.9467 11.654 17.032C11.526 17.1173 11.3073 17.16 10.998 17.16C10.71 17.16 10.4967 17.112 10.358 17.016C10.2193 16.9307 10.134 16.8187 10.102 16.68C10.07 16.5307 10.054 16.3653 10.054 16.184V7.672H7.078C6.92867 7.672 6.79 7.656 6.662 7.624C6.534 7.592 6.42733 7.51733 6.342 7.4C6.26733 7.28267 6.23 7.09067 6.23 6.824C6.23 6.55733 6.26733 6.36533 6.342 6.248C6.41667 6.12 6.518 6.04 6.646 6.008C6.78467 5.976 6.92867 5.96 7.078 5.96H14.934Z" fill="white"/>
<path d="M62.934 5.96C63.094 5.96 63.2327 5.976 63.35 6.008C63.478 6.04 63.5793 6.12 63.654 6.248C63.7287 6.36533 63.766 6.55733 63.766 6.824C63.766 7.09067 63.7287 7.288 63.654 7.416C63.5793 7.53333 63.478 7.608 63.35 7.64C63.222 7.66133 63.078 7.672 62.918 7.672H59.974V16.2C59.974 16.3813 59.9527 16.5467 59.91 16.696C59.878 16.8347 59.7927 16.9467 59.654 17.032C59.526 17.1173 59.3073 17.16 58.998 17.16C58.71 17.16 58.4967 17.112 58.358 17.016C58.2193 16.9307 58.134 16.8187 58.102 16.68C58.07 16.5307 58.054 16.3653 58.054 16.184V7.672H55.078C54.9287 7.672 54.79 7.656 54.662 7.624C54.534 7.592 54.4273 7.51733 54.342 7.4C54.2673 7.28267 54.23 7.09067 54.23 6.824C54.23 6.55733 54.2673 6.36533 54.342 6.248C54.4167 6.12 54.518 6.04 54.646 6.008C54.7847 5.976 54.9287 5.96 55.078 5.96H62.934Z" fill="white"/>
<path d="M64.3276 39.8C64.4342 40.0027 64.4876 40.184 64.4876 40.344C64.4982 40.4933 64.4556 40.6267 64.3596 40.744C64.2636 40.8507 64.1036 40.9627 63.8796 41.08C63.5382 41.24 63.2716 41.2827 63.0796 41.208C62.8982 41.1333 62.7276 40.9253 62.5676 40.584L58.9996 33.048L55.4476 40.584C55.2876 40.9147 55.1116 41.112 54.9196 41.176C54.7276 41.2507 54.4609 41.2133 54.1196 41.064C53.9062 40.9573 53.7462 40.8453 53.6396 40.728C53.5436 40.6107 53.5009 40.472 53.5116 40.312C53.5329 40.1413 53.6022 39.9387 53.7196 39.704L58.1196 30.536C58.2049 30.3653 58.3276 30.232 58.4876 30.136C58.6582 30.0293 58.8342 29.976 59.0156 29.976C59.1436 29.976 59.2609 29.9973 59.3676 30.04C59.4742 30.0827 59.5702 30.1467 59.6556 30.232C59.7516 30.3173 59.8316 30.424 59.8956 30.552L64.3276 39.8ZM56.1516 38.248L56.9196 36.6H61.0956L61.8636 38.248H56.1516Z" fill="white"/>
<path d="M16.3276 39.8C16.4342 40.0027 16.4876 40.184 16.4876 40.344C16.4982 40.4933 16.4556 40.6267 16.3596 40.744C16.2636 40.8507 16.1036 40.9627 15.8796 41.08C15.5382 41.24 15.2716 41.2827 15.0796 41.208C14.8982 41.1333 14.7276 40.9253 14.5676 40.584L10.9996 33.048L7.44756 40.584C7.28756 40.9147 7.11156 41.112 6.91956 41.176C6.72756 41.2507 6.4609 41.2133 6.11956 41.064C5.90623 40.9573 5.74623 40.8453 5.63956 40.728C5.54356 40.6107 5.5009 40.472 5.51156 40.312C5.5329 40.1413 5.60223 39.9387 5.71956 39.704L10.1196 30.536C10.2049 30.3653 10.3276 30.232 10.4876 30.136C10.6582 30.0293 10.8342 29.976 11.0156 29.976C11.1436 29.976 11.2609 29.9973 11.3676 30.04C11.4742 30.0827 11.5702 30.1467 11.6556 30.232C11.7516 30.3173 11.8316 30.424 11.8956 30.552L16.3276 39.8ZM8.15156 38.248L8.91956 36.6H13.0956L13.8636 38.248H8.15156Z" fill="white"/>
<path d="M6.2775 65.144C6.00017 65.144 5.79217 65.1013 5.6535 65.016C5.51483 64.9307 5.42417 64.8133 5.3815 64.664C5.3495 64.5147 5.3335 64.3493 5.3335 64.168V54.936C5.3335 54.7653 5.3495 54.6107 5.3815 54.472C5.42417 54.3227 5.51483 54.2053 5.6535 54.12C5.79217 54.024 6.01083 53.976 6.3095 53.976C6.5335 53.976 6.69883 53.992 6.8055 54.024C6.92283 54.0453 7.0135 54.0827 7.0775 54.136C7.1415 54.1787 7.2055 54.2373 7.2695 54.312L11.1735 59.768H10.8055L14.7255 54.296C14.8002 54.2107 14.8748 54.1467 14.9495 54.104C15.0242 54.0613 15.1202 54.0293 15.2375 54.008C15.3548 53.9867 15.5095 53.976 15.7015 53.976C15.9895 53.976 16.2028 54.024 16.3415 54.12C16.4802 54.2053 16.5655 54.3227 16.5975 54.472C16.6402 54.6213 16.6615 54.7867 16.6615 54.968V64.2C16.6615 64.36 16.6402 64.5147 16.5975 64.664C16.5655 64.8133 16.4802 64.9307 16.3415 65.016C16.2028 65.1013 15.9842 65.144 15.6855 65.144C15.3975 65.144 15.1842 65.096 15.0455 65C14.9068 64.9147 14.8162 64.7973 14.7735 64.648C14.7415 64.4987 14.7255 64.3387 14.7255 64.168V57.304L11.8135 61.512C11.7815 61.5547 11.7335 61.6133 11.6695 61.688C11.6055 61.752 11.5202 61.8107 11.4135 61.864C11.3068 61.9173 11.1628 61.944 10.9815 61.944C10.8108 61.944 10.6722 61.9173 10.5655 61.864C10.4588 61.8107 10.3735 61.752 10.3095 61.688C10.2562 61.624 10.2028 61.56 10.1495 61.496L7.2535 57.304V64.2C7.2535 64.36 7.23217 64.5147 7.1895 64.664C7.1575 64.8133 7.07217 64.9307 6.9335 65.016C6.79483 65.1013 6.57617 65.144 6.2775 65.144Z" fill="white"/>
<path d="M54.2775 65.144C54.0002 65.144 53.7922 65.1013 53.6535 65.016C53.5148 64.9307 53.4242 64.8133 53.3815 64.664C53.3495 64.5147 53.3335 64.3493 53.3335 64.168V54.936C53.3335 54.7653 53.3495 54.6107 53.3815 54.472C53.4242 54.3227 53.5148 54.2053 53.6535 54.12C53.7922 54.024 54.0108 53.976 54.3095 53.976C54.5335 53.976 54.6988 53.992 54.8055 54.024C54.9228 54.0453 55.0135 54.0827 55.0775 54.136C55.1415 54.1787 55.2055 54.2373 55.2695 54.312L59.1735 59.768H58.8055L62.7255 54.296C62.8002 54.2107 62.8748 54.1467 62.9495 54.104C63.0242 54.0613 63.1202 54.0293 63.2375 54.008C63.3548 53.9867 63.5095 53.976 63.7015 53.976C63.9895 53.976 64.2028 54.024 64.3415 54.12C64.4802 54.2053 64.5655 54.3227 64.5975 54.472C64.6402 54.6213 64.6615 54.7867 64.6615 54.968V64.2C64.6615 64.36 64.6402 64.5147 64.5975 64.664C64.5655 64.8133 64.4802 64.9307 64.3415 65.016C64.2028 65.1013 63.9842 65.144 63.6855 65.144C63.3975 65.144 63.1842 65.096 63.0455 65C62.9068 64.9147 62.8162 64.7973 62.7735 64.648C62.7415 64.4987 62.7255 64.3387 62.7255 64.168V57.304L59.8135 61.512C59.7815 61.5547 59.7335 61.6133 59.6695 61.688C59.6055 61.752 59.5202 61.8107 59.4135 61.864C59.3068 61.9173 59.1628 61.944 58.9815 61.944C58.8108 61.944 58.6722 61.9173 58.5655 61.864C58.4588 61.8107 58.3735 61.752 58.3095 61.688C58.2562 61.624 58.2028 61.56 58.1495 61.496L55.2535 57.304V64.2C55.2535 64.36 55.2322 64.5147 55.1895 64.664C55.1575 64.8133 55.0722 64.9307 54.9335 65.016C54.7948 65.1013 54.5762 65.144 54.2775 65.144Z" fill="white"/>
<path d="M40.3276 63.8C40.4342 64.0027 40.4876 64.184 40.4876 64.344C40.4982 64.4933 40.4556 64.6267 40.3596 64.744C40.2636 64.8507 40.1036 64.9627 39.8796 65.08C39.5382 65.24 39.2716 65.2827 39.0796 65.208C38.8982 65.1333 38.7276 64.9253 38.5676 64.584L34.9996 57.048L31.4476 64.584C31.2876 64.9147 31.1116 65.112 30.9196 65.176C30.7276 65.2507 30.4609 65.2133 30.1196 65.064C29.9062 64.9573 29.7462 64.8453 29.6396 64.728C29.5436 64.6107 29.5009 64.472 29.5116 64.312C29.5329 64.1413 29.6022 63.9387 29.7196 63.704L34.1196 54.536C34.2049 54.3653 34.3276 54.232 34.4876 54.136C34.6582 54.0293 34.8342 53.976 35.0156 53.976C35.1436 53.976 35.2609 53.9973 35.3676 54.04C35.4742 54.0827 35.5702 54.1467 35.6556 54.232C35.7516 54.3173 35.8316 54.424 35.8956 54.552L40.3276 63.8ZM32.1516 62.248L32.9196 60.6H37.0956L37.8636 62.248H32.1516Z" fill="white"/>
</svg>
