<svg width="400" height="400" viewBox="0 0 400 400" fill="none" xmlns="http://www.w3.org/2000/svg">
<path d="M111.111 22.2222H44.4444C32.1714 22.2222 22.2222 32.1714 22.2222 44.4444V111.111C22.2222 123.384 32.1714 133.333 44.4444 133.333H111.111C123.384 133.333 133.333 123.384 133.333 111.111V44.4444C133.333 32.1714 123.384 22.2222 111.111 22.2222Z" fill="#1E293B"/>
<path d="M233.333 22.2222H166.667C154.394 22.2222 144.444 32.1714 144.444 44.4444V111.111C144.444 123.384 154.394 133.333 166.667 133.333H233.333C245.606 133.333 255.555 123.384 255.555 111.111V44.4444C255.555 32.1714 245.606 22.2222 233.333 22.2222Z" fill="#3B82F6"/>
<path d="M355.555 22.2222H288.889C276.616 22.2222 266.667 32.1714 266.667 44.4444V111.111C266.667 123.384 276.616 133.333 288.889 133.333H355.555C367.828 133.333 377.778 123.384 377.778 111.111V44.4444C377.778 32.1714 367.828 22.2222 355.555 22.2222Z" fill="#1E293B"/>
<path d="M111.111 144.444H44.4444C32.1714 144.444 22.2222 154.394 22.2222 166.667V233.333C22.2222 245.606 32.1714 255.555 44.4444 255.555H111.111C123.384 255.555 133.333 245.606 133.333 233.333V166.667C133.333 154.394 123.384 144.444 111.111 144.444Z" fill="#1E293B"/>
<path d="M233.333 144.444H166.667C154.394 144.444 144.444 154.394 144.444 166.667V233.333C144.444 245.606 154.394 255.555 166.667 255.555H233.333C245.606 255.555 255.555 245.606 255.555 233.333V166.667C255.555 154.394 245.606 144.444 233.333 144.444Z" fill="#F4A300"/>
<path d="M355.555 144.444H288.889C276.616 144.444 266.667 154.394 266.667 166.667V233.333C266.667 245.606 276.616 255.555 288.889 255.555H355.555C367.828 255.555 377.778 245.606 377.778 233.333V166.667C377.778 154.394 367.828 144.444 355.555 144.444Z" fill="#1E293B"/>
<path d="M111.111 266.667H44.4444C32.1714 266.667 22.2222 276.616 22.2222 288.889V355.555C22.2222 367.828 32.1714 377.778 44.4444 377.778H111.111C123.384 377.778 133.333 367.828 133.333 355.555V288.889C133.333 276.616 123.384 266.667 111.111 266.667Z" fill="#1E293B"/>
<path d="M233.333 266.667H166.667C154.394 266.667 144.444 276.616 144.444 288.889V355.555C144.444 367.828 154.394 377.778 166.667 377.778H233.333C245.606 377.778 255.555 367.828 255.555 355.555V288.889C255.555 276.616 245.606 266.667 233.333 266.667Z" fill="#1E293B"/>
<path d="M355.555 266.667H288.889C276.616 266.667 266.667 276.616 266.667 288.889V355.555C266.667 367.828 276.616 377.778 288.889 377.778H355.555C367.828 377.778 377.778 367.828 377.778 355.555V288.889C377.778 276.616 367.828 266.667 355.555 266.667Z" fill="#1E293B"/>
</svg>
