<svg width="38" height="38" viewBox="0 0 38 38" fill="none" xmlns="http://www.w3.org/2000/svg">
<g clip-path="url(#clip0_257_56)">
<path d="M19 1.25C23.7076 1.25 28.222 3.12045 31.5508 6.44922C34.8796 9.77799 36.75 14.2924 36.75 19C36.75 23.7076 34.8796 28.222 31.5508 31.5508C28.222 34.8796 23.7076 36.75 19 36.75C14.2924 36.75 9.77799 34.8796 6.44922 31.5508C3.12045 28.222 1.25 23.7076 1.25 19C1.25 14.2924 3.12045 9.77799 6.44922 6.44922C9.77799 3.12045 14.2924 1.25 19 1.25ZM26.7451 10.1885C26.164 10.1986 25.541 10.365 24.5098 10.7393C23.4548 11.1221 21.8341 11.7777 19.2012 12.873C17.3406 13.6472 13.6371 15.2422 8.10059 17.6543C7.62138 17.8467 7.17972 18.066 6.82812 18.3271C6.4986 18.5719 6.03483 19.0118 5.94727 19.6904L5.94629 19.6973C5.89178 20.1391 5.99455 20.5671 6.24121 20.9287C6.46384 21.2549 6.75925 21.4622 6.99219 21.5947C7.42982 21.8436 8.00824 22.019 8.44922 22.1582L8.45117 22.1592L8.86621 22.2891C9.36614 22.4518 9.95922 22.6302 10.5234 22.7715C11.061 22.9061 11.6719 23.0327 12.1611 23.0439V23.0449C13.144 23.0701 14.0915 22.6674 14.9648 22.0645L14.9639 22.0635C15.0484 22.0065 15.1327 21.9506 15.2158 21.8945C15.0886 22.1054 14.9739 22.3555 14.917 22.6436C14.6754 23.867 15.5509 24.7231 16.416 25.2939C17.1856 25.8023 17.8022 26.2187 18.418 26.6387V26.6396C19.0948 27.102 19.7771 27.5648 20.6602 28.1455C20.8652 28.2802 21.0616 28.417 21.25 28.5547L21.2559 28.5586L21.2617 28.5635C21.9559 29.0585 23.0551 29.9045 24.4707 29.7734H24.4717C25.7847 29.6507 26.5016 28.5147 26.8242 27.0977L26.8838 26.8105C27.5123 23.4497 28.7597 16.1083 29.0508 13.04L29.0527 13.0264L29.0537 13.0117C29.0772 12.6845 29.0635 12.3559 29.0166 12.0312H29.0176C29.0169 12.0255 29.0154 12.0194 29.0146 12.0137C29.0131 12.0033 29.0124 11.9928 29.0107 11.9824H29.0088C28.9404 11.493 28.7 11.0437 28.3271 10.7178L28.2725 10.6699L28.2129 10.6289L28.0469 10.5244C27.6535 10.2972 27.2047 10.1804 26.748 10.1885H26.7451Z" stroke="#3B82F6" stroke-width="2.5"/>
</g>
<defs>
<clipPath id="clip0_257_56">
<rect width="38" height="38" fill="white"/>
</clipPath>
</defs>
</svg>
