<svg width="40" height="40" viewBox="0 0 40 40" fill="none" xmlns="http://www.w3.org/2000/svg">
<g clip-path="url(#clip0_257_56)">
<path d="M20 1.2002C24.9861 1.2002 29.7683 3.18037 33.2939 6.70605C36.8196 10.2317 38.7998 15.0139 38.7998 20C38.7998 24.9861 36.8196 29.7683 33.2939 33.2939C29.7683 36.8196 24.9861 38.7998 20 38.7998C15.0139 38.7998 10.2317 36.8196 6.70605 33.2939C3.18037 29.7683 1.2002 24.9861 1.2002 20C1.2002 15.0139 3.18037 10.2317 6.70605 6.70605C10.2317 3.18037 15.0139 1.2002 20 1.2002ZM28.1572 10.8398C27.5657 10.8498 26.925 11.0189 25.8389 11.4131C24.7313 11.815 23.0285 12.5041 20.2568 13.6572C18.7888 14.2681 16.2289 15.3646 12.582 16.9463L8.57324 18.6895C8.07189 18.8905 7.61543 19.1167 7.25586 19.3838C6.91774 19.635 6.46119 20.0739 6.375 20.7412L6.37402 20.748C6.32001 21.1857 6.42232 21.6077 6.66602 21.9648C6.88653 22.288 7.17969 22.4959 7.41699 22.6309C7.86447 22.8854 8.45966 23.0658 8.92871 23.2139L8.93066 23.2148L9.35547 23.3477V23.3486C9.88274 23.5205 10.5101 23.7093 11.1055 23.8584C11.6709 24 12.3036 24.1303 12.8047 24.1416V24.1426C12.806 24.1426 12.8073 24.1416 12.8086 24.1416H12.8096C13.8085 24.1657 14.7795 23.756 15.6865 23.1299L15.6855 23.1289C15.9709 22.9363 16.2497 22.7499 16.5205 22.5674C16.4823 22.6105 16.4443 22.6536 16.4082 22.6973C16.1853 22.9674 15.9152 23.3584 15.8164 23.8584C15.5772 25.0702 16.4387 25.931 17.3438 26.5283C18.1547 27.064 18.8044 27.5029 19.4531 27.9453V27.9463C19.8092 28.1895 20.1666 28.4325 20.5508 28.6914L21.8105 29.5303C22.0278 29.6731 22.2366 29.8178 22.4365 29.9639L22.4482 29.9717C23.1875 30.4988 24.3082 31.3579 25.748 31.2246H25.749C27.0539 31.1027 27.7876 29.9733 28.123 28.499L28.1846 28.2002C28.8463 24.662 30.159 16.9396 30.4648 13.7158L30.4668 13.6885C30.491 13.3511 30.4772 13.0123 30.4287 12.6777H30.4297C30.4288 12.6697 30.4268 12.6614 30.4258 12.6533C30.4247 12.6459 30.424 12.6383 30.4229 12.6309H30.4219C30.3541 12.1426 30.1142 11.6943 29.7422 11.3691L29.6895 11.3232L29.6318 11.2832L29.4648 11.1787C29.0687 10.95 28.617 10.8316 28.1572 10.8398Z" stroke="#3B82F6" stroke-width="2.4"/>
</g>
<defs>
<clipPath id="clip0_257_56">
<rect width="40" height="40" fill="white"/>
</clipPath>
</defs>
</svg>
